<?xml version="1.0" encoding="UTF-8"?>
<svg width="140px" height="50px" viewBox="0 0 140 50" version="1.1" xmlns="http://www.w3.org/2000/svg" xmlns:xlink="http://www.w3.org/1999/xlink">
    <title>Group 2</title>
    <g id="Page-1" stroke="none" stroke-width="1" fill="none" fill-rule="evenodd">
        <g id="Desktop-HD" transform="translate(-647.000000, -19.000000)">
            <g id="Group-3" transform="translate(96.000000, 19.000000)">
                <g id="Group-13" transform="translate(551.399817, 0.000000)">
                    <g id="Group-12" transform="translate(-0.000000, 0.000000)">
                        <g id="Group" transform="translate(21.600183, 0.000000)">
                            <polygon id="Rectangle" fill="#000000" points="7.74538174 0 59 0 51.2546183 22 0 22"></polygon>
                            <g id="Stan" transform="translate(10.026000, 5.632426)" fill="#FFFFFF" fill-rule="nonzero">
                                <path d="M4.338,12.834 C3.51,12.834 2.769,12.687 2.115,12.393 C1.461,12.099 0.948,11.691 0.576,11.169 C0.204,10.647 0.012,10.044 0,9.36 L1.746,9.36 C1.806,9.948 2.049,10.443 2.475,10.845 C2.901,11.247 3.522,11.448 4.338,11.448 C5.118,11.448 5.733,11.253 6.183,10.863 C6.633,10.473 6.858,9.972 6.858,9.36 C6.858,8.88 6.726,8.49 6.462,8.19 C6.198,7.89 5.868,7.662 5.472,7.506 C5.076,7.35 4.542,7.182 3.87,7.002 C3.042,6.786 2.379,6.57 1.881,6.354 C1.383,6.138 0.957,5.799 0.603,5.337 C0.249,4.875 0.072,4.254 0.072,3.474 C0.072,2.79 0.246,2.184 0.594,1.656 C0.942,1.128 1.431,0.72 2.061,0.432 C2.691,0.144 3.414,0 4.23,0 C5.406,0 6.369,0.294 7.119,0.882 C7.869,1.47 8.292,2.25 8.388,3.222 L6.588,3.222 C6.528,2.742 6.276,2.319 5.832,1.953 C5.388,1.587 4.8,1.404 4.068,1.404 C3.384,1.404 2.826,1.581 2.394,1.935 C1.962,2.289 1.746,2.784 1.746,3.42 C1.746,3.876 1.875,4.248 2.133,4.536 C2.391,4.824 2.709,5.043 3.087,5.193 C3.465,5.343 3.996,5.514 4.68,5.706 C5.508,5.934 6.174,6.159 6.678,6.381 C7.182,6.603 7.614,6.945 7.974,7.407 C8.334,7.869 8.514,8.496 8.514,9.288 C8.514,9.9 8.352,10.476 8.028,11.016 C7.704,11.556 7.224,11.994 6.588,12.33 C5.952,12.666 5.202,12.834 4.338,12.834 Z" id="Path"></path>
                                <path d="M12.924,4.194 L12.924,10.008 C12.924,10.488 13.026,10.827 13.23,11.025 C13.434,11.223 13.788,11.322 14.292,11.322 L15.498,11.322 L15.498,12.708 L14.022,12.708 C13.11,12.708 12.426,12.498 11.97,12.078 C11.514,11.658 11.286,10.968 11.286,10.008 L11.286,4.194 L10.008,4.194 L10.008,2.844 L11.286,2.844 L11.286,0.36 L12.924,0.36 L12.924,2.844 L15.498,2.844 L15.498,4.194 L12.924,4.194 Z" id="Path"></path>
                                <path d="M16.866,7.74 C16.866,6.732 17.07,5.847 17.478,5.085 C17.886,4.323 18.447,3.732 19.161,3.312 C19.875,2.892 20.67,2.682 21.546,2.682 C22.41,2.682 23.16,2.868 23.796,3.24 C24.432,3.612 24.906,4.08 25.218,4.644 L25.218,2.844 L26.874,2.844 L26.874,12.708 L25.218,12.708 L25.218,10.872 C24.894,11.448 24.411,11.925 23.769,12.303 C23.127,12.681 22.38,12.87 21.528,12.87 C20.652,12.87 19.86,12.654 19.152,12.222 C18.444,11.79 17.886,11.184 17.478,10.404 C17.07,9.624 16.866,8.736 16.866,7.74 Z M25.218,7.758 C25.218,7.014 25.068,6.366 24.768,5.814 C24.468,5.262 24.063,4.839 23.553,4.545 C23.043,4.251 22.482,4.104 21.87,4.104 C21.258,4.104 20.7,4.248 20.196,4.536 C19.692,4.824 19.29,5.244 18.99,5.796 C18.69,6.348 18.54,6.996 18.54,7.74 C18.54,8.496 18.69,9.153 18.99,9.711 C19.29,10.269 19.692,10.695 20.196,10.989 C20.7,11.283 21.258,11.43 21.87,11.43 C22.482,11.43 23.043,11.283 23.553,10.989 C24.063,10.695 24.468,10.269 24.768,9.711 C25.068,9.153 25.218,8.502 25.218,7.758 Z" id="Shape"></path>
                                <path d="M34.452,2.664 C35.652,2.664 36.624,3.027 37.368,3.753 C38.112,4.479 38.484,5.526 38.484,6.894 L38.484,12.708 L36.864,12.708 L36.864,7.128 C36.864,6.144 36.618,5.391 36.126,4.869 C35.634,4.347 34.962,4.086 34.11,4.086 C33.246,4.086 32.559,4.356 32.049,4.896 C31.539,5.436 31.284,6.222 31.284,7.254 L31.284,12.708 L29.646,12.708 L29.646,2.844 L31.284,2.844 L31.284,4.248 C31.608,3.744 32.049,3.354 32.607,3.078 C33.165,2.802 33.78,2.664 34.452,2.664 Z" id="Path"></path>
                            </g>
                        </g>
                        <g id="Haakman" transform="translate(0.000000, 23.368000)" fill="#000000" fill-rule="nonzero">
                            <polygon id="Path" points="0 25.632 0 2.016 2.988 2.016 2.988 11.916 13.968 11.916 13.968 2.016 16.992 2.016 16.992 25.632 13.968 25.632 13.968 14.508 2.988 14.508 2.988 25.632"></polygon>
                            <path d="M27.216,26.064 C25.752,26.064 24.534,25.626 23.562,24.75 C22.59,23.874 22.104,22.656 22.104,21.096 C22.104,19.176 22.962,17.706 24.678,16.686 C26.394,15.666 29.112,14.952 32.832,14.544 C32.832,13.8 32.73,13.092 32.526,12.42 C32.322,11.748 31.962,11.202 31.446,10.782 C30.93,10.362 30.192,10.152 29.232,10.152 C28.224,10.152 27.276,10.344 26.388,10.728 C25.5,11.112 24.708,11.544 24.012,12.024 L22.86,9.972 C23.676,9.444 24.678,8.934 25.866,8.442 C27.054,7.95 28.344,7.704 29.736,7.704 C31.872,7.704 33.42,8.358 34.38,9.666 C35.34,10.974 35.82,12.72 35.82,14.904 L35.82,25.632 L33.372,25.632 L33.12,23.544 L33.012,23.544 C32.196,24.216 31.302,24.804 30.33,25.308 C29.358,25.812 28.32,26.064 27.216,26.064 Z M28.08,23.688 C28.92,23.688 29.712,23.484 30.456,23.076 C31.2,22.668 31.992,22.092 32.832,21.348 L32.832,16.488 C29.928,16.848 27.894,17.388 26.73,18.108 C25.566,18.828 24.984,19.752 24.984,20.88 C24.984,21.864 25.284,22.578 25.884,23.022 C26.484,23.466 27.216,23.688 28.08,23.688 Z" id="Shape"></path>
                            <path d="M45.36,26.064 C43.896,26.064 42.678,25.626 41.706,24.75 C40.734,23.874 40.248,22.656 40.248,21.096 C40.248,19.176 41.106,17.706 42.822,16.686 C44.538,15.666 47.256,14.952 50.976,14.544 C50.976,13.8 50.874,13.092 50.67,12.42 C50.466,11.748 50.106,11.202 49.59,10.782 C49.074,10.362 48.336,10.152 47.376,10.152 C46.368,10.152 45.42,10.344 44.532,10.728 C43.644,11.112 42.852,11.544 42.156,12.024 L41.004,9.972 C41.82,9.444 42.822,8.934 44.01,8.442 C45.198,7.95 46.488,7.704 47.88,7.704 C50.016,7.704 51.564,8.358 52.524,9.666 C53.484,10.974 53.964,12.72 53.964,14.904 L53.964,25.632 L51.516,25.632 L51.264,23.544 L51.156,23.544 C50.34,24.216 49.446,24.804 48.474,25.308 C47.502,25.812 46.464,26.064 45.36,26.064 Z M46.224,23.688 C47.064,23.688 47.856,23.484 48.6,23.076 C49.344,22.668 50.136,22.092 50.976,21.348 L50.976,16.488 C48.072,16.848 46.038,17.388 44.874,18.108 C43.71,18.828 43.128,19.752 43.128,20.88 C43.128,21.864 43.428,22.578 44.028,23.022 C44.628,23.466 45.36,23.688 46.224,23.688 Z" id="Shape"></path>
                            <polygon id="Path" points="59.472 25.632 59.472 0 62.388 0 62.388 17.352 62.496 17.352 69.948 8.136 73.224 8.136 67.356 15.156 74.016 25.632 70.776 25.632 65.664 17.208 62.388 21.024 62.388 25.632"></polygon>
                            <path d="M77.292,25.632 L77.292,8.136 L79.74,8.136 L79.992,10.656 L80.1,10.656 C80.868,9.816 81.708,9.114 82.62,8.55 C83.532,7.986 84.504,7.704 85.536,7.704 C86.88,7.704 87.93,7.998 88.686,8.586 C89.442,9.174 90,9.996 90.36,11.052 C91.272,10.068 92.196,9.264 93.132,8.64 C94.068,8.016 95.064,7.704 96.12,7.704 C97.92,7.704 99.258,8.286 100.134,9.45 C101.01,10.614 101.448,12.312 101.448,14.544 L101.448,25.632 L98.496,25.632 L98.496,14.94 C98.496,13.308 98.232,12.12 97.704,11.376 C97.176,10.632 96.36,10.26 95.256,10.26 C93.96,10.26 92.496,11.16 90.864,12.96 L90.864,25.632 L87.912,25.632 L87.912,14.94 C87.912,13.308 87.648,12.12 87.12,11.376 C86.592,10.632 85.764,10.26 84.636,10.26 C83.34,10.26 81.876,11.16 80.244,12.96 L80.244,25.632 L77.292,25.632 Z" id="Path"></path>
                            <path d="M111.168,26.064 C109.704,26.064 108.486,25.626 107.514,24.75 C106.542,23.874 106.056,22.656 106.056,21.096 C106.056,19.176 106.914,17.706 108.63,16.686 C110.346,15.666 113.064,14.952 116.784,14.544 C116.784,13.8 116.682,13.092 116.478,12.42 C116.274,11.748 115.914,11.202 115.398,10.782 C114.882,10.362 114.144,10.152 113.184,10.152 C112.176,10.152 111.228,10.344 110.34,10.728 C109.452,11.112 108.66,11.544 107.964,12.024 L106.812,9.972 C107.628,9.444 108.63,8.934 109.818,8.442 C111.006,7.95 112.296,7.704 113.688,7.704 C115.824,7.704 117.372,8.358 118.332,9.666 C119.292,10.974 119.772,12.72 119.772,14.904 L119.772,25.632 L117.324,25.632 L117.072,23.544 L116.964,23.544 C116.148,24.216 115.254,24.804 114.282,25.308 C113.31,25.812 112.272,26.064 111.168,26.064 Z M112.032,23.688 C112.872,23.688 113.664,23.484 114.408,23.076 C115.152,22.668 115.944,22.092 116.784,21.348 L116.784,16.488 C113.88,16.848 111.846,17.388 110.682,18.108 C109.518,18.828 108.936,19.752 108.936,20.88 C108.936,21.864 109.236,22.578 109.836,23.022 C110.436,23.466 111.168,23.688 112.032,23.688 Z" id="Shape"></path>
                            <path d="M125.28,25.632 L125.28,8.136 L127.728,8.136 L127.98,10.656 L128.088,10.656 C128.928,9.816 129.816,9.114 130.752,8.55 C131.688,7.986 132.756,7.704 133.956,7.704 C135.804,7.704 137.154,8.286 138.006,9.45 C138.858,10.614 139.284,12.312 139.284,14.544 L139.284,25.632 L136.332,25.632 L136.332,14.94 C136.332,13.308 136.068,12.12 135.54,11.376 C135.012,10.632 134.172,10.26 133.02,10.26 C132.132,10.26 131.334,10.488 130.626,10.944 C129.918,11.4 129.12,12.072 128.232,12.96 L128.232,25.632 L125.28,25.632 Z" id="Path"></path>
                        </g>
                    </g>
                </g>
            </g>
        </g>
    </g>
</svg>